<?xml version="1.0" encoding="utf-8"?>
<svg version="1.1" xmlns:xlink="http://www.w3.org/1999/xlink" width="12px" height="12px" viewBox="121 157  12 12" xmlns="http://www.w3.org/2000/svg">
  <path d="M 127 157  C 130.36 157  133 159.64  133 163  C 133 166.36  130.36 169  127 169  C 123.64 169  121 166.36  121 163  C 121 159.64  123.64 157  127 157  Z " fill-rule="nonzero" fill="#ffffff" stroke="none" />
  <path d="M 127 157.5  C 130.08 157.5  132.5 159.92  132.5 163  C 132.5 166.08  130.08 168.5  127 168.5  C 123.92 168.5  121.5 166.08  121.5 163  C 121.5 159.92  123.92 157.5  127 157.5  Z " stroke-width="1" stroke="#797979" fill="none" />
  <path d="M 127 166  C 125.32 166  124 164.68  124 163  C 124 161.32  125.32 160  127 160  C 128.68 160  130 161.32  130 163  C 130 164.68  128.68 166  127 166  " fill-rule="nonzero" fill="#797979" stroke="none" />
</svg>