<?xml version="1.0" encoding="utf-8"?>
<svg version="1.1" xmlns:xlink="http://www.w3.org/1999/xlink" width="12px" height="12px" viewBox="121 124  12 12" xmlns="http://www.w3.org/2000/svg">
  <path d="M 127 124  C 130.36 124  133 126.64  133 130  C 133 133.36  130.36 136  127 136  C 123.64 136  121 133.36  121 130  C 121 126.64  123.64 124  127 124  Z " fill-rule="nonzero" fill="#ffffff" stroke="none" />
  <path d="M 127 124.5  C 130.08 124.5  132.5 126.92  132.5 130  C 132.5 133.08  130.08 135.5  127 135.5  C 123.92 135.5  121.5 133.08  121.5 130  C 121.5 126.92  123.92 124.5  127 124.5  Z " stroke-width="1" stroke="#797979" fill="none" />
  <path d="M 127 133  C 125.32 133  124 131.68  124 130  C 124 128.32  125.32 127  127 127  C 128.68 127  130 128.32  130 130  C 130 131.68  128.68 133  127 133  " fill-rule="nonzero" fill="#797979" stroke="none" />
</svg>